<?xml version="1.0" encoding="UTF-8"?>
<svg viewBox="0 0 512 512" xmlns="http://www.w3.org/2000/svg">
  <!-- לוגו פרפר לבן, רקע שקוף -->
  <g fill="none" stroke="#FFFFFF" stroke-width="10" stroke-linecap="round" stroke-linejoin="round">

    <!-- גוף -->
    <line x1="256" y1="180" x2="256" y2="330" />
    <line x1="256" y1="200" x2="256" y2="210" />
    <line x1="256" y1="225" x2="256" y2="235" />
    <line x1="256" y1="250" x2="256" y2="260" />
    <line x1="256" y1="275" x2="256" y2="285" />
    <line x1="256" y1="300" x2="256" y2="310" />

    <!-- ראש קטן -->
    <circle cx="256" cy="170" r="10" />

    <!-- מחושים -->
    <path d="M252 165 C230 140, 220 130, 208 125" />
    <path d="M260 165 C282 140, 292 130, 304 125" />

    <!-- כנף עליונה שמאלית – קווי נוירון רכים -->
    <polyline points="256,190 232,182 210,175 188,172" />
    <polyline points="256,205 230,205 206,200 186,195" />
    <polyline points="256,220 230,228 206,235 188,242" />

    <!-- הסתעפויות עליונות שמאל -->
    <polyline points="210,175 196,160 182,152" />
    <polyline points="206,200 192,190 176,186" />
    <polyline points="206,235 192,240 180,248" />

    <!-- כנף תחתונה שמאלית – קצרה, אלגנטית -->
    <polyline points="256,245 232,255 212,270 198,288" />
    <polyline points="256,260 232,270 214,285 204,302" />
    <polyline points="256,275 234,285 220,300 212,316" />

    <!-- הסתעפויות תחתונות שמאל -->
    <polyline points="212,270 198,266 186,270" />
    <polyline points="214,285 200,283 188,290" />
    <polyline points="220,300 206,304 194,314" />

    <!-- צד ימין – מראה סימטרית -->
    <!-- כנף עליונה ימנית -->
    <polyline points="256,190 280,182 302,175 324,172" />
    <polyline points="256,205 282,205 306,200 326,195" />
    <polyline points="256,220 282,228 306,235 324,242" />

    <!-- הסתעפויות עליונות ימין -->
    <polyline points="302,175 316,160 330,152" />
    <polyline points="306,200 320,190 336,186" />
    <polyline points="306,235 320,240 332,248" />

    <!-- כנף תחתונה ימנית -->
    <polyline points="256,245 280,255 300,270 314,288" />
    <polyline points="256,260 280,270 298,285 308,302" />
    <polyline points="256,275 278,285 292,300 300,316" />

    <!-- הסתעפויות תחתונות ימין -->
    <polyline points="300,270 314,266 326,270" />
    <polyline points="298,285 312,283 324,290" />
    <polyline points="292,300 306,304 318,314" />
  </g>

  <!-- נקודות נוירונים / PCB – קטנות בפנים, גדולות בקצה -->
  <g fill="#FFFFFF" stroke="none">
    <!-- צד שמאל פנימי -->
    <circle cx="232" cy="182" r="4"/>
    <circle cx="210" cy="175" r="4"/>
    <circle cx="196" cy="160" r="4"/>
    <circle cx="230" cy="205" r="4"/>
    <circle cx="206" cy="200" r="4"/>
    <circle cx="192" cy="190" r="4"/>
    <circle cx="230" cy="228" r="4"/>
    <circle cx="206" cy="235" r="4"/>
    <circle cx="192" cy="240" r="4"/>

    <circle cx="232" cy="255" r="4"/>
    <circle cx="212" cy="270" r="4"/>
    <circle cx="198" cy="288" r="4"/>
    <circle cx="232" cy="270" r="4"/>
    <circle cx="214" cy="285" r="4"/>
    <circle cx="204" cy="302" r="4"/>
    <circle cx="234" cy="285" r="4"/>
    <circle cx="220" cy="300" r="4"/>
    <circle cx="212" cy="316" r="4"/>

    <!-- קצוות שמאל – קצת גדולים יותר -->
    <circle cx="188" cy="172" r="5"/>
    <circle cx="182" cy="152" r="5"/>
    <circle cx="186" cy="195" r="5"/>
    <circle cx="180" cy="248" r="5"/>
    <circle cx="186" cy="270" r="5"/>
    <circle cx="188" cy="290" r="5"/>
    <circle cx="194" cy="314" r="5"/>

    <!-- צד ימין פנימי (מראה) -->
    <circle cx="280" cy="182" r="4"/>
    <circle cx="302" cy="175" r="4"/>
    <circle cx="316" cy="160" r="4"/>
    <circle cx="282" cy="205" r="4"/>
    <circle cx="306" cy="200" r="4"/>
    <circle cx="320" cy="190" r="4"/>
    <circle cx="282" cy="228" r="4"/>
    <circle cx="306" cy="235" r="4"/>
    <circle cx="320" cy="240" r="4"/>

    <circle cx="280" cy="255" r="4"/>
    <circle cx="300" cy="270" r="4"/>
    <circle cx="314" cy="288" r="4"/>
    <circle cx="280" cy="270" r="4"/>
    <circle cx="298" cy="285" r="4"/>
    <circle cx="308" cy="302" r="4"/>
    <circle cx="278" cy="285" r="4"/>
    <circle cx="292" cy="300" r="4"/>
    <circle cx="300" cy="316" r="4"/>

    <!-- קצוות ימין – גדולים יותר -->
    <circle cx="324" cy="172" r="5"/>
    <circle cx="330" cy="152" r="5"/>
    <circle cx="326" cy="195" r="5"/>
    <circle cx="332" cy="248" r="5"/>
    <circle cx="326" cy="270" r="5"/>
    <circle cx="324" cy="290" r="5"/>
    <circle cx="318" cy="314" r="5"/>
  </g>
</svg>