<svg width="600" height="600" viewBox="0 0 600 600" xmlns="http://www.w3.org/2000/svg">
  <!-- רקע כהה (אפשר למחוק אם לא צריך) -->
  <rect x="0" y="0" width="600" height="600" fill="#05070D"/>

  <!-- קבוצה כדי שיהיה קל לטפל בצבעים -->
  <g fill="none" stroke="#C7C8CB" stroke-width="2.5" stroke-linecap="round" stroke-linejoin="round">

    <!-- שתי “אנטנות” עליונות – רמז עדין לפרפר / נוירונים -->
    <path d="M300 210 C 305 185 322 165 335 150" />
    <path d="M300 210 C 295 185 278 165 265 150" />

    <!-- כנף עליונה שמאלית – קו חיצוני -->
    <path d="M300 260
             C 275 235 245 225 220 220
             C 205 217 190 217 175 220
             C 160 225 150 235 145 250" />

    <!-- כנף עליונה ימנית – קו חיצוני (מראה) -->
    <path d="M300 260
             C 325 235 355 225 380 220
             C 395 217 410 217 425 220
             C 440 225 450 235 455 250" />

    <!-- קווים פנימיים עליונים (נוירונים) -->
    <path d="M300 250 C 280 235 260 230 240 232" />
    <path d="M300 250 C 320 235 340 230 360 232" />

    <!-- נקודות נוירון עליונות -->
    <circle cx="240" cy="232" r="4" fill="#C7C8CB"/>
    <circle cx="360" cy="232" r="4" fill="#C7C8CB"/>

    <circle cx="220" cy="220" r="4" fill="#C7C8CB"/>
    <circle cx="380" cy="220" r="4" fill="#C7C8CB"/>

    <circle cx="175" cy="220" r="4" fill="#C7C8CB"/>
    <circle cx="425" cy="220" r="4" fill="#C7C8CB"/>

    <!-- כנפיים תחתונות – קו חיצוני שמתחיל כמעט אופקי ואז יורד בפולש קל, לא נסגר -->
    <!-- שמאל -->
    <path d="
        M 260 300
        C 235 295 220 295 205 298
        C 190 302 175 310 162 325
        C 150 340 143 360 140 382
        C 138 400 140 418 145 432
        C 155 455 175 470 200 478
        " />

    <!-- ימין (מראה) -->
    <path d="
        M 340 300
        C 365 295 380 295 395 298
        C 410 302 425 310 438 325
        C 450 340 457 360 460 382
        C 462 400 460 418 455 432
        C 445 455 425 470 400 478
        " />

    <!-- קווים פנימיים תחתונים (נוירונים עדינים) -->
    <!-- שמאל -->
    <path d="M300 290 C 280 295 265 305 252 320" />
    <circle cx="252" cy="320" r="4" fill="#C7C8CB"/>

    <!-- ימין -->
    <path d="M300 290 C 320 295 335 305 348 320" />
    <circle cx="348" cy="320" r="4" fill="#C7C8CB"/>

    <!-- גוף מרכזי – אפשר להחליש / למחוק אם לא רוצים שיבלוט -->
    <path d="M300 260 C 302 290 302 305 300 330 C 298 305 298 290 300 260" />

  </g>

  <!-- טקסט – PERSEPTIONAI עם S -->
  <text
      x="300"
      y="520"
      text-anchor="middle"
      font-family="system-ui, -apple-system, BlinkMacSystemFont, 'Segoe UI', sans-serif"
      font-size="40"
      letter-spacing="6"
      fill="#C7C8CB">
    PERSEPTIONAI
  </text>
</svg>