<?xml version="1.0" encoding="UTF-8"?>
<svg viewBox="0 0 512 512" xmlns="http://www.w3.org/2000/svg">
  <!-- רקע שקוף, כל הקווים לבנים -->
  <g fill="none" stroke="#FFFFFF" stroke-width="10" stroke-linecap="round" stroke-linejoin="round">

    <!-- גוף -->
    <line x1="256" y1="190" x2="256" y2="330" />
    <line x1="256" y1="210" x2="256" y2="220" />
    <line x1="256" y1="235" x2="256" y2="245" />
    <line x1="256" y1="260" x2="256" y2="270" />
    <line x1="256" y1="285" x2="256" y2="295" />
    <line x1="256" y1="310" x2="256" y2="320" />

    <!-- ראש קטן -->
    <circle cx="256" cy="180" r="10" />

    <!-- מחושים -->
    <path d="M252 172 C230 145, 220 135, 210 130" />
    <path d="M260 172 C282 145, 292 135, 302 130" />

    <!-- כנף עליונה שמאלית – קווי "נוירון" רכים יותר -->
    <polyline points="256,210 230,200 205,190 180,185" />
    <polyline points="256,220 230,220 205,215 185,210" />
    <polyline points="256,230 230,240 205,245 185,250" />

    <!-- הסתעפויות כנף עליונה שמאלית -->
    <polyline points="205,190 188,170 172,160" />
    <polyline points="205,215 188,200 168,195" />
    <polyline points="205,245 188,255 170,265" />

    <!-- כנף תחתונה שמאלית – קווים קצרים, פחות "רגליים" -->
    <polyline points="256,260 230,270 210,285 195,305" />
    <polyline points="256,275 230,285 210,300 200,318" />
    <polyline points="256,290 232,302 215,318 205,335" />

    <!-- הסתעפויות כנף תחתונה שמאלית -->
    <polyline points="210,285 196,280 182,282" />
    <polyline points="210,300 195,298 180,305" />
    <polyline points="215,318 200,322 188,332" />

    <!-- מראה סימטרית לימין -->

    <!-- כנף עליונה ימנית -->
    <polyline points="256,210 282,200 307,190 332,185" />
    <polyline points="256,220 282,220 307,215 327,210" />
    <polyline points="256,230 282,240 307,245 327,250" />

    <!-- הסתעפויות כנף עליונה ימנית -->
    <polyline points="307,190 324,170 340,160" />
    <polyline points="307,215 324,200 344,195" />
    <polyline points="307,245 324,255 342,265" />

    <!-- כנף תחתונה ימנית -->
    <polyline points="256,260 282,270 302,285 317,305" />
    <polyline points="256,275 282,285 302,300 312,318" />
    <polyline points="256,290 280,302 297,318 307,335" />

    <!-- הסתעפויות כנף תחתונה ימנית -->
    <polyline points="302,285 316,280 330,282" />
    <polyline points="302,300 317,298 332,305" />
    <polyline points="297,318 312,322 324,332" />
  </g>

  <!-- נקודות "נוירונים" / PCB – מעט גדולות על קצוות, קטנות בפנים -->
  <g fill="#FFFFFF" stroke="none">
    <!-- פנימיות עליונות -->
    <circle cx="230" cy="200" r="4"/>
    <circle cx="205" cy="190" r="4"/>
    <circle cx="188" cy="170" r="4"/>
    <circle cx="230" cy="220" r="4"/>
    <circle cx="205" cy="215" r="4"/>
    <circle cx="188" cy="200" r="4"/>
    <circle cx="230" cy="240" r="4"/>
    <circle cx="205" cy="245" r="4"/>
    <circle cx="188" cy="255" r="4"/>

    <!-- קצוות עליונים שמאל -->
    <circle cx="180" cy="185" r="5"/>
    <circle cx="172" cy="160" r="5"/>
    <circle cx="168" cy="195" r="5"/>
    <circle cx="170" cy="265" r="5"/>

    <!-- פנימיות תחתונות שמאל -->
    <circle cx="230" cy="270" r="4"/>
    <circle cx="210" cy="285" r="4"/>
    <circle cx="195" cy="305" r="4"/>
    <circle cx="210" cy="300" r="4"/>
    <circle cx="200" cy="318" r="4"/>
    <circle cx="215" cy="318" r="4"/>

    <!-- קצוות תחתונים שמאל -->
    <circle cx="182" cy="282" r="5"/>
    <circle cx="180" cy="305" r="5"/>
    <circle cx="188" cy="332" r="5"/>

    <!-- מראה לימין – פשוט משתקפים סביב x=256 -->
    <!-- עליונות ימין -->
    <circle cx="282" cy="200" r="4"/>
    <circle cx="307" cy="190" r="4"/>
    <circle cx="324" cy="170" r="4"/>
    <circle cx="282" cy="220" r="4"/>
    <circle cx="307" cy="215" r="4"/>
    <circle cx="324" cy="200" r="4"/>
    <circle cx="282" cy="240" r="4"/>
    <circle cx="307" cy="245" r="4"/>
    <circle cx="324" cy="255" r="4"/>

    <!-- קצוות עליונים ימין -->
    <circle cx="332" cy="185" r="5"/>
    <circle cx="340" cy="160" r="5"/>
    <circle cx="344" cy="195" r="5"/>
    <circle cx="342" cy="265" r="5"/>

    <!-- תחתונות ימין -->
    <circle cx="282" cy="270" r="4"/>
    <circle cx="302" cy="285" r="4"/>
    <circle cx="317" cy="305" r="4"/>
    <circle cx="302" cy="300" r="4"/>
    <circle cx="312" cy="318" r="4"/>
    <circle cx="297" cy="318" r="4"/>

    <!-- קצוות תחתונים ימין -->
    <circle cx="330" cy="282" r="5"/>
    <circle cx="332" cy="305" r="5"/>
    <circle cx="324" cy="332" r="5"/>
  </g>
</svg>